<svg xmlns="http://www.w3.org/2000/svg" width="150" viewBox="0 0 150 112.5" height="112.5" version="1.0"><defs><clipPath id="a"><path d="M 28 46 L 149.667969 46 L 149.667969 112.003906 L 28 112.003906 Z M 28 46"/></clipPath><clipPath id="b"><path d="M 23.125 54.648438 L 159.597656 38.832031 L 171.722656 143.414062 L 35.246094 159.230469 Z M 23.125 54.648438"/></clipPath><clipPath id="c"><path d="M 23.125 54.648438 L 159.597656 38.832031 L 171.722656 143.414062 L 35.246094 159.230469 Z M 23.125 54.648438"/></clipPath></defs><g clip-path="url(#a)"><g clip-path="url(#b)"><g clip-path="url(#c)"><path fill="#C4C4C4" d="M 91.363281 46.738281 C 53.59375 51.117188 25.898438 78.175781 29.230469 106.933594 C 32.566406 135.695312 65.714844 155.699219 103.484375 151.320312 C 141.25 146.945312 168.945312 119.886719 165.613281 91.128906 C 162.28125 62.367188 129.128906 42.363281 91.363281 46.738281 Z M 91.363281 46.738281"/></g></g></g></svg>