<svg xmlns="http://www.w3.org/2000/svg" width="95.25" viewBox="0 0 95.25 87.75" height="87.75" version="1.0"><defs><clipPath id="a"><path d="M 0 0.21875 L 94.503906 0.21875 L 94.503906 87 L 0 87 Z M 0 0.21875"/></clipPath></defs><g clip-path="url(#a)"><path fill="#FFF" d="M 68.515625 0.507812 C 60.292969 0.507812 52.402344 4.324219 47.253906 10.335938 C 42.101562 4.324219 34.210938 0.507812 25.988281 0.507812 C 11.410156 0.507812 0 11.890625 0 26.429688 C 0 44.222656 16.066406 58.761719 40.402344 80.796875 L 47.253906 86.992188 L 54.105469 80.796875 C 78.441406 58.761719 94.503906 44.222656 94.503906 26.429688 C 94.503906 11.890625 83.09375 0.507812 68.515625 0.507812 Z M 47.75 73.820312 L 47.253906 74.269531 L 46.757812 73.820312 C 24.289062 53.484375 9.449219 40.050781 9.449219 26.429688 C 9.449219 17.027344 16.5625 9.933594 25.988281 9.933594 C 33.265625 9.933594 40.355469 14.625 42.835938 21.058594 L 51.648438 21.058594 C 54.152344 14.625 61.238281 9.933594 68.515625 9.933594 C 77.945312 9.933594 85.054688 17.027344 85.054688 26.429688 C 85.054688 40.050781 70.21875 53.484375 47.75 73.820312 Z M 47.75 73.820312"/></g></svg>