<svg xmlns="http://www.w3.org/2000/svg" width="60.75" viewBox="0 0 60.75 87.75" height="87.75" version="1.0"><defs><clipPath id="a"><path d="M 0 0.0546875 L 60.5 0.0546875 L 60.5 87.445312 L 0 87.445312 Z M 0 0.0546875"/></clipPath></defs><g clip-path="url(#a)"><path fill="#FFF" d="M 42.695312 62.761719 C 37.816406 71 32.890625 78.367188 30.375 82.042969 C 27.863281 78.367188 22.933594 71 18.054688 62.761719 C 9.027344 47.519531 4.253906 36.300781 4.253906 30.316406 C 4.253906 15.933594 15.972656 4.234375 30.375 4.234375 C 44.78125 4.234375 56.496094 15.933594 56.496094 30.316406 C 56.496094 36.300781 51.722656 47.519531 42.695312 62.761719 Z M 30.375 0.0585938 C 13.664062 0.0585938 0.0664062 13.632812 0.0664062 30.316406 C 0.0664062 37.148438 4.914062 48.789062 14.46875 64.914062 C 21.484375 76.753906 28.597656 86.820312 28.667969 86.921875 C 29.058594 87.476562 29.695312 87.804688 30.375 87.804688 C 31.054688 87.804688 31.691406 87.476562 32.085938 86.921875 C 32.15625 86.820312 39.269531 76.753906 46.285156 64.914062 C 55.839844 48.789062 60.683594 37.148438 60.683594 30.316406 C 60.683594 13.632812 47.085938 0.0585938 30.375 0.0585938"/></g><path fill="#FFF" d="M 30.375 39.367188 C 25.378906 39.367188 21.316406 35.304688 21.316406 30.316406 C 21.316406 25.328125 25.378906 21.269531 30.375 21.269531 C 35.371094 21.269531 39.4375 25.328125 39.4375 30.316406 C 39.4375 35.304688 35.371094 39.367188 30.375 39.367188 Z M 30.375 17.089844 C 23.074219 17.089844 17.128906 23.023438 17.128906 30.316406 C 17.128906 37.609375 23.074219 43.542969 30.375 43.542969 C 37.679688 43.542969 43.621094 37.609375 43.621094 30.316406 C 43.621094 23.023438 37.679688 17.089844 30.375 17.089844"/></svg>