<svg xmlns="http://www.w3.org/2000/svg" width="56.25" viewBox="0 0 56.25 37.5" height="37.5" version="1.0"><defs><clipPath id="a"><path d="M 28 1 L 55.410156 1 L 55.410156 36 L 28 36 Z M 28 1"/></clipPath></defs><path fill="#FF5F00" d="M 20.347656 5.351562 L 36.394531 5.351562 L 36.394531 31.605469 L 20.347656 31.605469 Z M 20.347656 5.351562"/><path fill="#EB001B" d="M 22 18.480469 C 22 17.214844 22.140625 15.96875 22.421875 14.738281 C 22.707031 13.503906 23.121094 12.320312 23.675781 11.183594 C 24.226562 10.046875 24.898438 8.984375 25.691406 8.003906 C 26.480469 7.019531 27.375 6.136719 28.367188 5.355469 C 27.550781 4.714844 26.679688 4.152344 25.761719 3.671875 C 24.839844 3.191406 23.878906 2.800781 22.886719 2.5 C 21.890625 2.199219 20.878906 1.992188 19.847656 1.882812 C 18.8125 1.773438 17.777344 1.757812 16.742188 1.839844 C 15.707031 1.921875 14.691406 2.101562 13.6875 2.375 C 12.683594 2.648438 11.71875 3.011719 10.785156 3.46875 C 9.847656 3.921875 8.964844 4.460938 8.132812 5.078125 C 7.296875 5.699219 6.527344 6.390625 5.824219 7.15625 C 5.117188 7.921875 4.492188 8.742188 3.941406 9.625 C 3.390625 10.507812 2.925781 11.433594 2.546875 12.402344 C 2.167969 13.371094 1.882812 14.367188 1.691406 15.386719 C 1.496094 16.410156 1.402344 17.441406 1.402344 18.484375 C 1.402344 19.523438 1.496094 20.554688 1.691406 21.578125 C 1.882812 22.597656 2.167969 23.59375 2.546875 24.5625 C 2.925781 25.53125 3.390625 26.457031 3.941406 27.339844 C 4.492188 28.222656 5.117188 29.042969 5.824219 29.808594 C 6.527344 30.574219 7.296875 31.265625 8.132812 31.886719 C 8.964844 32.503906 9.847656 33.042969 10.785156 33.496094 C 11.71875 33.953125 12.683594 34.316406 13.6875 34.589844 C 14.691406 34.863281 15.707031 35.042969 16.742188 35.125 C 17.777344 35.207031 18.8125 35.191406 19.847656 35.082031 C 20.878906 34.972656 21.890625 34.765625 22.886719 34.464844 C 23.878906 34.164062 24.839844 33.773438 25.761719 33.292969 C 26.679688 32.8125 27.550781 32.25 28.367188 31.609375 C 27.375 30.828125 26.480469 29.945312 25.6875 28.960938 C 24.894531 27.976562 24.222656 26.917969 23.671875 25.78125 C 23.121094 24.640625 22.703125 23.457031 22.421875 22.226562 C 22.140625 20.992188 22 19.746094 22 18.480469 Z M 22 18.480469"/><path fill="#F79E1B" d="M 53.742188 28.828125 L 53.742188 28.289062 L 53.972656 28.289062 L 53.972656 28.175781 L 53.421875 28.175781 L 53.421875 28.289062 L 53.640625 28.289062 L 53.640625 28.828125 Z M 54.8125 28.828125 L 54.8125 28.175781 L 54.644531 28.175781 L 54.449219 28.640625 L 54.257812 28.175781 L 54.089844 28.175781 L 54.089844 28.828125 L 54.210938 28.828125 L 54.210938 28.335938 L 54.390625 28.757812 L 54.515625 28.757812 L 54.695312 28.335938 L 54.695312 28.828125 Z M 54.8125 28.828125"/><g clip-path="url(#a)"><path fill="#F79E1B" d="M 55.335938 18.480469 C 55.335938 20.046875 55.117188 21.582031 54.6875 23.085938 C 54.253906 24.59375 53.625 26.011719 52.796875 27.335938 C 51.964844 28.664062 50.96875 29.851562 49.804688 30.898438 C 48.644531 31.945312 47.359375 32.8125 45.953125 33.496094 C 44.542969 34.179688 43.070312 34.65625 41.53125 34.925781 C 39.988281 35.195312 38.441406 35.246094 36.886719 35.078125 C 35.332031 34.910156 33.832031 34.53125 32.382812 33.941406 C 30.933594 33.351562 29.597656 32.570312 28.367188 31.605469 C 28.859375 31.214844 29.332031 30.796875 29.78125 30.355469 C 30.226562 29.914062 30.648438 29.445312 31.042969 28.957031 C 31.4375 28.464844 31.804688 27.953125 32.140625 27.421875 C 32.476562 26.890625 32.785156 26.339844 33.058594 25.773438 C 33.332031 25.207031 33.574219 24.628906 33.785156 24.035156 C 33.996094 23.441406 34.167969 22.835938 34.3125 22.222656 C 34.453125 21.609375 34.558594 20.988281 34.628906 20.363281 C 34.699219 19.734375 34.734375 19.109375 34.734375 18.476562 C 34.734375 17.847656 34.699219 17.21875 34.628906 16.59375 C 34.558594 15.96875 34.453125 15.347656 34.3125 14.734375 C 34.167969 14.121094 33.996094 13.515625 33.785156 12.921875 C 33.574219 12.328125 33.332031 11.746094 33.058594 11.179688 C 32.785156 10.613281 32.476562 10.066406 32.140625 9.53125 C 31.804688 9 31.4375 8.488281 31.042969 8 C 30.648438 7.507812 30.226562 7.042969 29.78125 6.597656 C 29.332031 6.15625 28.859375 5.742188 28.367188 5.351562 C 29.597656 4.382812 30.933594 3.605469 32.382812 3.011719 C 33.832031 2.421875 35.332031 2.042969 36.886719 1.875 C 38.441406 1.710938 39.988281 1.761719 41.53125 2.027344 C 43.070312 2.296875 44.542969 2.773438 45.953125 3.460938 C 47.359375 4.144531 48.644531 5.007812 49.804688 6.054688 C 50.96875 7.101562 51.964844 8.289062 52.796875 9.617188 C 53.625 10.945312 54.253906 12.363281 54.6875 13.867188 C 55.117188 15.375 55.335938 16.910156 55.335938 18.476562 Z M 55.335938 18.480469"/></g></svg>