<svg xmlns="http://www.w3.org/2000/svg" width="72.75" viewBox="0 0 72.75 87.75" height="87.75" version="1.0"><defs><clipPath id="a"><path d="M 0.15625 0.0273438 L 72.5 0.0273438 L 72.5 87.476562 L 0.15625 87.476562 Z M 0.15625 0.0273438"/></clipPath></defs><g clip-path="url(#a)"><path fill="#FFF" d="M 71.613281 67.96875 L 61.128906 55.765625 L 61.128906 32.53125 C 61.109375 31.078125 60.960938 29.640625 60.6875 28.214844 C 60.417969 26.789062 60.023438 25.398438 59.507812 24.042969 C 58.992188 22.683594 58.363281 21.382812 57.621094 20.132812 C 56.878906 18.886719 56.035156 17.710938 55.089844 16.609375 C 54.140625 15.507812 53.105469 14.496094 51.984375 13.574219 C 50.859375 12.652344 49.664062 11.835938 48.398438 11.121094 C 47.132812 10.410156 45.8125 9.808594 44.441406 9.324219 C 43.070312 8.839844 41.667969 8.476562 40.234375 8.234375 L 40.234375 4.101562 C 40.234375 3.597656 40.140625 3.117188 39.945312 2.652344 C 39.753906 2.1875 39.480469 1.777344 39.125 1.421875 C 38.765625 1.066406 38.355469 0.792969 37.890625 0.601562 C 37.425781 0.40625 36.941406 0.3125 36.4375 0.3125 C 35.933594 0.3125 35.449219 0.40625 34.984375 0.601562 C 34.519531 0.792969 34.105469 1.066406 33.75 1.421875 C 33.394531 1.777344 33.121094 2.1875 32.925781 2.652344 C 32.734375 3.117188 32.636719 3.597656 32.636719 4.101562 L 32.636719 8.234375 C 31.203125 8.476562 29.800781 8.839844 28.429688 9.324219 C 27.058594 9.808594 25.742188 10.410156 24.476562 11.121094 C 23.210938 11.835938 22.015625 12.652344 20.890625 13.574219 C 19.769531 14.496094 18.734375 15.507812 17.785156 16.609375 C 16.839844 17.710938 15.992188 18.886719 15.25 20.132812 C 14.507812 21.382812 13.878906 22.683594 13.367188 24.042969 C 12.851562 25.398438 12.457031 26.789062 12.183594 28.214844 C 11.914062 29.640625 11.765625 31.078125 11.742188 32.53125 L 11.742188 55.765625 L 1.257812 67.96875 C 0.777344 68.53125 0.484375 69.179688 0.382812 69.910156 C 0.28125 70.644531 0.382812 71.347656 0.695312 72.019531 C 1.003906 72.691406 1.472656 73.226562 2.097656 73.625 C 2.722656 74.023438 3.402344 74.222656 4.144531 74.222656 L 19.796875 74.222656 C 20.023438 75.152344 20.320312 76.058594 20.695312 76.9375 C 21.070312 77.816406 21.511719 78.660156 22.027344 79.464844 C 22.539062 80.269531 23.117188 81.03125 23.757812 81.742188 C 24.398438 82.453125 25.089844 83.105469 25.839844 83.703125 C 26.585938 84.296875 27.378906 84.828125 28.214844 85.296875 C 29.050781 85.761719 29.917969 86.15625 30.820312 86.476562 C 31.722656 86.800781 32.644531 87.046875 33.585938 87.214844 C 34.53125 87.386719 35.480469 87.476562 36.4375 87.488281 C 37.394531 87.476562 38.34375 87.386719 39.285156 87.214844 C 40.230469 87.046875 41.152344 86.800781 42.050781 86.476562 C 42.953125 86.15625 43.824219 85.761719 44.660156 85.296875 C 45.496094 84.828125 46.285156 84.296875 47.035156 83.703125 C 47.785156 83.105469 48.476562 82.453125 49.117188 81.742188 C 49.757812 81.03125 50.332031 80.269531 50.847656 79.464844 C 51.359375 78.660156 51.804688 77.816406 52.179688 76.9375 C 52.554688 76.058594 52.851562 75.152344 53.078125 74.222656 L 68.726562 74.222656 C 69.46875 74.222656 70.152344 74.023438 70.777344 73.625 C 71.402344 73.226562 71.867188 72.691406 72.179688 72.019531 C 72.488281 71.347656 72.59375 70.644531 72.492188 69.910156 C 72.390625 69.179688 72.097656 68.53125 71.613281 67.96875 Z M 36.4375 79.910156 C 35.523438 79.886719 34.632812 79.738281 33.757812 79.464844 C 32.886719 79.1875 32.070312 78.800781 31.308594 78.296875 C 30.546875 77.796875 29.867188 77.199219 29.273438 76.507812 C 28.679688 75.8125 28.191406 75.050781 27.8125 74.222656 L 45.058594 74.222656 C 44.679688 75.050781 44.191406 75.8125 43.597656 76.507812 C 43.003906 77.199219 42.328125 77.796875 41.566406 78.296875 C 40.800781 78.800781 39.984375 79.1875 39.113281 79.464844 C 38.242188 79.738281 37.351562 79.886719 36.4375 79.910156 Z M 12.410156 66.644531 L 18.429688 59.628906 C 19.039062 58.921875 19.339844 58.101562 19.339844 57.167969 L 19.339844 32.53125 C 19.339844 31.972656 19.367188 31.414062 19.425781 30.859375 C 19.480469 30.300781 19.5625 29.75 19.671875 29.203125 C 19.777344 28.652344 19.914062 28.113281 20.078125 27.578125 C 20.238281 27.042969 20.429688 26.519531 20.644531 26.003906 C 20.855469 25.484375 21.097656 24.980469 21.359375 24.488281 C 21.625 23.996094 21.910156 23.519531 22.222656 23.054688 C 22.535156 22.589844 22.867188 22.140625 23.222656 21.707031 C 23.578125 21.277344 23.953125 20.863281 24.347656 20.46875 C 24.746094 20.074219 25.160156 19.699219 25.589844 19.34375 C 26.023438 18.988281 26.472656 18.65625 26.9375 18.347656 C 27.40625 18.035156 27.882812 17.75 28.378906 17.488281 C 28.871094 17.222656 29.378906 16.984375 29.894531 16.769531 C 30.410156 16.558594 30.9375 16.371094 31.472656 16.207031 C 32.011719 16.046875 32.550781 15.910156 33.101562 15.800781 C 33.652344 15.691406 34.203125 15.609375 34.761719 15.554688 C 35.320312 15.5 35.875 15.472656 36.4375 15.472656 C 36.996094 15.472656 37.554688 15.5 38.113281 15.554688 C 38.667969 15.609375 39.222656 15.691406 39.773438 15.800781 C 40.320312 15.910156 40.863281 16.046875 41.398438 16.207031 C 41.933594 16.371094 42.460938 16.558594 42.980469 16.769531 C 43.496094 16.984375 44 17.222656 44.496094 17.488281 C 44.988281 17.75 45.46875 18.035156 45.933594 18.347656 C 46.398438 18.65625 46.847656 18.988281 47.28125 19.34375 C 47.714844 19.699219 48.128906 20.074219 48.523438 20.46875 C 48.921875 20.863281 49.296875 21.277344 49.652344 21.707031 C 50.007812 22.140625 50.339844 22.589844 50.652344 23.054688 C 50.960938 23.519531 51.25 23.996094 51.511719 24.488281 C 51.777344 24.980469 52.015625 25.484375 52.230469 26.003906 C 52.445312 26.519531 52.632812 27.042969 52.796875 27.578125 C 52.957031 28.113281 53.09375 28.652344 53.203125 29.203125 C 53.3125 29.75 53.394531 30.300781 53.449219 30.859375 C 53.503906 31.414062 53.53125 31.972656 53.53125 32.53125 L 53.53125 57.167969 C 53.53125 58.101562 53.835938 58.921875 54.445312 59.628906 L 60.464844 66.644531 Z M 12.410156 66.644531"/></g></svg>