<svg xmlns="http://www.w3.org/2000/svg" width="104.88" viewBox="0 0 104.88 93.75" height="93.75" version="1.0"><defs><clipPath id="a"><path d="M 0.203125 0.148438 L 104.679688 0.148438 L 104.679688 93.5 L 0.203125 93.5 Z M 0.203125 0.148438"/></clipPath></defs><g clip-path="url(#a)"><path fill="#FFF" d="M 102.0625 2.492188 C 102.0625 2.367188 102.0625 2.367188 102.0625 2.492188 C 101.6875 2.117188 101.316406 1.867188 100.941406 1.617188 C 100.941406 1.617188 100.941406 1.617188 100.816406 1.617188 C 100.816406 1.617188 100.816406 1.617188 100.691406 1.617188 C 98.824219 0.621094 96.707031 0.375 94.589844 0.996094 L 5.558594 31.015625 C 2.820312 31.890625 0.828125 34.257812 0.578125 37.121094 C 0.203125 39.984375 1.574219 42.726562 3.941406 44.347656 L 29.09375 60.539062 L 31.832031 86.824219 C 32.082031 89.441406 33.699219 91.683594 36.066406 92.804688 C 36.066406 92.804688 36.066406 92.804688 36.191406 92.804688 C 37.1875 93.300781 38.183594 93.425781 39.304688 93.425781 C 40.921875 93.425781 42.417969 92.929688 43.664062 91.929688 L 60.222656 79.722656 L 78.652344 91.808594 C 79.898438 92.679688 81.265625 93.050781 82.761719 93.050781 C 83.757812 93.050781 84.753906 92.804688 85.75 92.429688 C 88.117188 91.433594 89.734375 89.441406 90.109375 86.949219 L 104.550781 9.21875 C 104.925781 6.851562 104.054688 4.234375 102.0625 2.492188 Z M 44.410156 66.269531 C 44.410156 66.269531 44.285156 66.394531 44.410156 66.269531 C 44.285156 66.394531 44.285156 66.519531 44.285156 66.519531 C 44.285156 66.519531 44.285156 66.519531 44.285156 66.644531 C 44.285156 66.769531 44.160156 66.769531 44.160156 66.894531 C 44.160156 66.894531 44.160156 67.015625 44.160156 67.015625 L 36.6875 85.203125 L 34.074219 60.289062 L 84.253906 19.558594 Z M 5.433594 37.867188 C 5.558594 36.871094 6.183594 36.125 7.054688 35.875 L 91.230469 7.472656 L 31.210938 56.054688 L 6.554688 40.234375 C 5.683594 39.738281 5.308594 38.863281 5.433594 37.867188 Z M 40.796875 88.070312 L 47.523438 71.625 L 55.742188 76.984375 Z M 85.003906 86.199219 C 84.878906 87.074219 84.253906 87.695312 83.507812 88.070312 C 82.761719 88.441406 81.890625 88.320312 81.140625 87.820312 L 50.011719 67.390625 L 99.445312 9.34375 Z M 85.003906 86.199219"/></g></svg>