<svg xmlns="http://www.w3.org/2000/svg" width="101.25" viewBox="0 0 101.25 87.75" height="87.75" version="1.0"><defs><clipPath id="a"><path d="M 0 0.492188 L 100.503906 0.492188 L 100.503906 70 L 0 70 Z M 0 0.492188"/></clipPath><clipPath id="b"><path d="M 33 72 L 49 72 L 49 87.304688 L 33 87.304688 Z M 33 72"/></clipPath><clipPath id="c"><path d="M 76 72 L 92 72 L 92 87.304688 L 76 87.304688 Z M 76 72"/></clipPath></defs><g clip-path="url(#a)"><path fill="#FFF" d="M 5.375 12.328125 C 4.808594 9.050781 7.007812 5.921875 10.273438 5.355469 C 11.851562 5.082031 13.449219 5.4375 14.761719 6.367188 C 16.074219 7.296875 16.949219 8.679688 17.222656 10.277344 L 18.183594 15.714844 C 18.191406 15.898438 18.226562 16.078125 18.277344 16.25 L 26.542969 63.132812 C 27.132812 66.554688 30.074219 69.042969 33.539062 69.042969 L 93.242188 69.042969 C 94.464844 69.042969 95.453125 68.046875 95.453125 66.820312 C 95.453125 65.59375 94.464844 64.601562 93.242188 64.601562 L 33.539062 64.601562 C 32.234375 64.601562 31.125 63.664062 30.902344 62.367188 L 29.949219 56.964844 L 90.425781 56.964844 C 93.804688 56.964844 96.601562 54.417969 96.933594 51.042969 L 100.394531 15.761719 C 100.457031 15.136719 100.253906 14.515625 99.832031 14.054688 C 99.414062 13.589844 98.816406 13.324219 98.195312 13.324219 L 22.253906 13.324219 L 21.582031 9.511719 C 21.105469 6.753906 19.589844 4.347656 17.308594 2.738281 C 15.03125 1.125 12.265625 0.503906 9.515625 0.980469 C 3.847656 1.964844 0.0351562 7.398438 1.015625 13.085938 C 1.226562 14.292969 2.359375 15.101562 3.574219 14.894531 C 4.777344 14.6875 5.585938 13.539062 5.375 12.328125 Z M 25.492188 31.679688 L 36.136719 31.679688 L 37.484375 52.527344 L 29.167969 52.527344 Z M 70.011719 31.679688 L 80.300781 31.679688 L 78.632812 52.527344 L 69.347656 52.527344 Z M 64.921875 52.527344 L 55.628906 52.527344 L 55.285156 31.679688 L 65.582031 31.679688 Z M 70.152344 27.238281 L 70.453125 17.761719 L 81.414062 17.761719 L 80.65625 27.238281 Z M 65.722656 27.238281 L 55.214844 27.238281 L 55.058594 17.761719 L 66.023438 17.761719 Z M 50.789062 27.238281 L 40.28125 27.238281 L 39.667969 17.761719 L 50.632812 17.761719 Z M 50.863281 31.679688 L 51.203125 52.527344 L 41.917969 52.527344 L 40.570312 31.679688 Z M 90.425781 52.527344 L 83.070312 52.527344 L 84.738281 31.679688 L 94.386719 31.679688 L 92.53125 50.609375 C 92.425781 51.703125 91.519531 52.527344 90.425781 52.527344 Z M 94.824219 27.238281 L 85.09375 27.238281 L 85.851562 17.761719 L 95.753906 17.761719 Z M 35.234375 17.761719 L 35.847656 27.238281 L 24.707031 27.238281 L 23.039062 17.761719 Z M 35.234375 17.761719"/></g><g clip-path="url(#b)"><path fill="#FFF" d="M 33.390625 79.847656 C 33.390625 84.128906 36.863281 87.617188 41.132812 87.617188 C 45.398438 87.617188 48.875 84.128906 48.875 79.847656 C 48.875 75.5625 45.398438 72.078125 41.132812 72.078125 C 36.863281 72.078125 33.390625 75.5625 33.390625 79.847656 Z M 44.449219 79.847656 C 44.449219 81.683594 42.960938 83.175781 41.132812 83.175781 C 39.300781 83.175781 37.8125 81.683594 37.8125 79.847656 C 37.8125 78.011719 39.300781 76.515625 41.132812 76.515625 C 42.960938 76.515625 44.449219 78.011719 44.449219 79.847656 Z M 44.449219 79.847656"/></g><g clip-path="url(#c)"><path fill="#FFF" d="M 76.269531 79.847656 C 76.269531 84.128906 79.742188 87.617188 84.011719 87.617188 C 88.28125 87.617188 91.753906 84.128906 91.753906 79.847656 C 91.753906 75.5625 88.28125 72.078125 84.011719 72.078125 C 79.742188 72.078125 76.269531 75.5625 76.269531 79.847656 Z M 87.328125 79.847656 C 87.328125 81.683594 85.839844 83.175781 84.011719 83.175781 C 82.179688 83.175781 80.691406 81.683594 80.691406 79.847656 C 80.691406 78.011719 82.179688 76.515625 84.011719 76.515625 C 85.839844 76.515625 87.328125 78.011719 87.328125 79.847656 Z M 87.328125 79.847656"/></g></svg>